<svg width="28" height="28" viewBox="0 0 28 28" fill="none" xmlns="http://www.w3.org/2000/svg">
<path d="M14 25.6666C7.55651 25.6666 2.33334 20.4435 2.33334 14C2.33334 7.55648 7.55651 2.33331 14 2.33331C20.4435 2.33331 25.6667 7.55648 25.6667 14C25.6667 20.4435 20.4435 25.6666 14 25.6666ZM14 23.3333C16.4754 23.3333 18.8493 22.35 20.5997 20.5996C22.35 18.8493 23.3333 16.4753 23.3333 14C23.3333 11.5246 22.35 9.15066 20.5997 7.40032C18.8493 5.64998 16.4754 4.66665 14 4.66665C11.5247 4.66665 9.15069 5.64998 7.40035 7.40032C5.65001 9.15066 4.66668 11.5246 4.66668 14C4.66668 16.4753 5.65001 18.8493 7.40035 20.5996C9.15069 22.35 11.5247 23.3333 14 23.3333ZM12.8333 17.5H15.1667V19.8333H12.8333V17.5ZM15.1667 15.5808V16.3333H12.8333V14.5833C12.8333 14.2739 12.9563 13.9771 13.1751 13.7584C13.3938 13.5396 13.6906 13.4166 14 13.4166C14.3314 13.4166 14.656 13.3225 14.9361 13.1452C15.2161 12.9679 15.44 12.7147 15.5817 12.4152C15.7235 12.1156 15.7773 11.7819 15.7368 11.453C15.6963 11.124 15.5633 10.8133 15.3531 10.557C15.143 10.3008 14.8644 10.1094 14.5498 10.0053C14.2351 9.90114 13.8974 9.88849 13.5758 9.9688C13.2543 10.0491 12.9622 10.2191 12.7334 10.4589C12.5047 10.6988 12.3488 10.9987 12.2838 11.3236L9.99484 10.8651C10.1367 10.1559 10.4644 9.49708 10.9444 8.956C11.4244 8.41492 12.0394 8.01099 12.7267 7.78552C13.4139 7.56005 14.1487 7.52111 14.856 7.6727C15.5632 7.82428 16.2175 8.16095 16.752 8.64828C17.2864 9.13561 17.6819 9.75612 17.898 10.4464C18.114 11.1367 18.1429 11.8719 17.9817 12.577C17.8204 13.2821 17.4749 13.9317 16.9803 14.4595C16.4857 14.9872 15.8598 15.3742 15.1667 15.5808Z" fill="#03053D"/>
</svg>
